<?xml version="1.0" encoding="utf-8"?>
<!-- Generator: Adobe Illustrator 16.0.3, SVG Export Plug-In . SVG Version: 6.00 Build 0)  -->
<!DOCTYPE svg PUBLIC "-//W3C//DTD SVG 1.1//EN" "http://www.w3.org/Graphics/SVG/1.1/DTD/svg11.dtd">
<svg version="1.1" id="Capa_1" xmlns="http://www.w3.org/2000/svg" xmlns:xlink="http://www.w3.org/1999/xlink" x="0px" y="0px"
	 width="150px" height="150px" viewBox="0 0 150 150" enable-background="new 0 0 150 150" xml:space="preserve">
<circle fill="none" stroke="#FFFFFF" stroke-width="5" stroke-miterlimit="10" cx="75.178" cy="75.382" r="53.977"/>
<g>
	<ellipse fill="#20AAC3" stroke="#FFFFFF" stroke-miterlimit="10" cx="129.136" cy="58.848" rx="2.5" ry="4.311"/>
	<ellipse fill="#20AAC3" stroke="#FFFFFF" stroke-miterlimit="10" cx="119.2" cy="68.882" rx="1.614" ry="2.902"/>
	<ellipse fill="#20AAC3" stroke="#FFFFFF" stroke-miterlimit="10" cx="138.765" cy="69.514" rx="1.613" ry="2.902"/>
	<g id="XMLID_1_">
		<g>
			<polygon fill="#20AAC3" points="143.677,73.89 144.112,77.801 131.945,72.836 130.393,84.69 134.18,87.483 134.18,89.286 
				122.512,88.974 122.512,87.237 126.635,84.69 125.8,72.836 113.388,76.684 113.76,73.208 125.8,65.138 126.635,58.848 
				131.636,58.848 132.288,65.138 			"/>
		</g>
		<g>
			<line fill="none" stroke="#FFFFFF" stroke-miterlimit="10" x1="126.635" y1="58.848" x2="125.8" y2="65.138"/>
			<line fill="none" stroke="#FFFFFF" stroke-miterlimit="10" x1="125.8" y1="65.138" x2="113.76" y2="73.208"/>
			<line fill="none" stroke="#FFFFFF" stroke-miterlimit="10" x1="113.76" y1="73.208" x2="113.388" y2="76.684"/>
			<line fill="none" stroke="#FFFFFF" stroke-miterlimit="10" x1="113.388" y1="76.684" x2="125.8" y2="72.836"/>
			<line fill="none" stroke="#FFFFFF" stroke-miterlimit="10" x1="125.8" y1="72.836" x2="126.635" y2="84.69"/>
			<line fill="none" stroke="#FFFFFF" stroke-miterlimit="10" x1="126.635" y1="84.69" x2="122.512" y2="87.237"/>
			<line fill="none" stroke="#FFFFFF" stroke-miterlimit="10" x1="122.512" y1="87.237" x2="122.512" y2="88.974"/>
			<line fill="none" stroke="#FFFFFF" stroke-miterlimit="10" x1="122.512" y1="88.974" x2="134.18" y2="89.286"/>
			<line fill="none" stroke="#FFFFFF" stroke-miterlimit="10" x1="134.18" y1="89.286" x2="134.18" y2="87.483"/>
			<line fill="none" stroke="#FFFFFF" stroke-miterlimit="10" x1="134.18" y1="87.483" x2="130.393" y2="84.69"/>
			<line fill="none" stroke="#FFFFFF" stroke-miterlimit="10" x1="130.393" y1="84.69" x2="131.945" y2="72.836"/>
			<line fill="none" stroke="#FFFFFF" stroke-miterlimit="10" x1="131.945" y1="72.836" x2="144.112" y2="77.801"/>
			<line fill="none" stroke="#FFFFFF" stroke-miterlimit="10" x1="144.112" y1="77.801" x2="143.677" y2="73.89"/>
			<line fill="none" stroke="#FFFFFF" stroke-miterlimit="10" x1="143.677" y1="73.89" x2="132.288" y2="65.138"/>
			<line fill="none" stroke="#FFFFFF" stroke-miterlimit="10" x1="132.288" y1="65.138" x2="131.636" y2="58.848"/>
			<line fill="none" stroke="#FFFFFF" stroke-miterlimit="10" x1="131.636" y1="58.848" x2="126.635" y2="58.848"/>
		</g>
	</g>
</g>
<g>
	
		<ellipse transform="matrix(-1 0.0028 -0.0028 -1 42.7587 168.8643)" fill="#20AAC3" stroke="#FFFFFF" stroke-miterlimit="10" cx="21.262" cy="84.462" rx="3.154" ry="8.598"/>
	<path fill="#20AAC3" stroke="#FFFFFF" stroke-miterlimit="10" d="M15.641,79.463c0.018,1.793,0.241,3.557-1.064,3.566
		c-1.321,0.018-1.125-2.203-1.136-3.545c-0.015-1.359,0.468-2.469,1.075-2.477C15.124,77.002,15.627,78.102,15.641,79.463z"/>
	<path fill="#20AAC3" stroke="#FFFFFF" stroke-miterlimit="10" d="M11.458,75.867c0.018,1.791,0.242,3.555-1.063,3.57
		c-1.321,0.012-1.123-2.209-1.136-3.548c-0.015-1.363,0.465-2.472,1.074-2.476C10.94,73.406,11.446,74.505,11.458,75.867z"/>
	<path fill="#20AAC3" stroke="#FFFFFF" stroke-miterlimit="10" d="M28.813,79.426c0.018,1.791,0.229,3.557-0.992,3.568
		c-1.232,0.014-1.049-2.207-1.063-3.547c-0.014-1.361,0.435-2.471,1.003-2.477C28.324,76.965,28.799,78.063,28.813,79.426z"/>
	<path fill="#20AAC3" stroke="#FFFFFF" stroke-miterlimit="10" d="M32.582,75.808c0.018,1.79,0.242,3.554-1.063,3.569
		c-1.32,0.012-1.122-2.209-1.135-3.548c-0.015-1.362,0.466-2.471,1.075-2.476C32.064,73.348,32.569,74.445,32.582,75.808z"/>
	<g id="XMLID_2_">
		<g>
			<polygon fill="#20AAC3" points="5.777,72.589 5.303,70.405 19.043,73.985 19.657,62.942 15.162,58.258 14.946,56.968 
				19.895,58.818 20.358,57.314 22.01,57.31 22.551,58.811 27.349,56.936 27.35,58.224 22.958,62.646 23.488,73.972 37.245,70.133 
				36.853,72.285 24.299,81.641 17.99,81.658 			"/>
		</g>
		<g>
			<line fill="none" stroke="#FFFFFF" stroke-miterlimit="10" x1="17.99" y1="81.658" x2="5.777" y2="72.589"/>
			<line fill="none" stroke="#FFFFFF" stroke-miterlimit="10" x1="5.777" y1="72.589" x2="5.303" y2="70.405"/>
			<line fill="none" stroke="#FFFFFF" stroke-miterlimit="10" x1="5.303" y1="70.405" x2="19.043" y2="73.985"/>
			<line fill="none" stroke="#FFFFFF" stroke-miterlimit="10" x1="19.043" y1="73.985" x2="19.657" y2="62.942"/>
			<line fill="none" stroke="#FFFFFF" stroke-miterlimit="10" x1="19.657" y1="62.942" x2="15.162" y2="58.258"/>
			<line fill="none" stroke="#FFFFFF" stroke-miterlimit="10" x1="15.162" y1="58.258" x2="14.946" y2="56.968"/>
			<line fill="none" stroke="#FFFFFF" stroke-miterlimit="10" x1="14.946" y1="56.968" x2="19.895" y2="58.818"/>
			<line fill="none" stroke="#FFFFFF" stroke-miterlimit="10" x1="19.895" y1="58.818" x2="20.358" y2="57.314"/>
			<line fill="none" stroke="#FFFFFF" stroke-miterlimit="10" x1="20.358" y1="57.314" x2="22.01" y2="57.31"/>
			<line fill="none" stroke="#FFFFFF" stroke-miterlimit="10" x1="22.01" y1="57.31" x2="22.551" y2="58.811"/>
			<line fill="none" stroke="#FFFFFF" stroke-miterlimit="10" x1="22.551" y1="58.811" x2="27.349" y2="56.936"/>
			<line fill="none" stroke="#FFFFFF" stroke-miterlimit="10" x1="27.349" y1="56.936" x2="27.35" y2="58.224"/>
			<line fill="none" stroke="#FFFFFF" stroke-miterlimit="10" x1="27.35" y1="58.224" x2="22.958" y2="62.646"/>
			<line fill="none" stroke="#FFFFFF" stroke-miterlimit="10" x1="22.958" y1="62.646" x2="23.488" y2="73.972"/>
			<line fill="none" stroke="#FFFFFF" stroke-miterlimit="10" x1="23.488" y1="73.972" x2="37.245" y2="70.133"/>
			<line fill="none" stroke="#FFFFFF" stroke-miterlimit="10" x1="37.245" y1="70.133" x2="36.853" y2="72.285"/>
			<line fill="none" stroke="#FFFFFF" stroke-miterlimit="10" x1="36.853" y1="72.285" x2="24.299" y2="81.641"/>
			<line fill="none" stroke="#FFFFFF" stroke-miterlimit="10" x1="24.299" y1="81.641" x2="17.99" y2="81.658"/>
		</g>
	</g>
</g>
</svg>
