<?xml version="1.0" encoding="utf-8"?>
<!-- Generator: Adobe Illustrator 16.0.3, SVG Export Plug-In . SVG Version: 6.00 Build 0)  -->
<!DOCTYPE svg PUBLIC "-//W3C//DTD SVG 1.1//EN" "http://www.w3.org/Graphics/SVG/1.1/DTD/svg11.dtd">
<svg version="1.1" id="Capa_1" xmlns="http://www.w3.org/2000/svg" xmlns:xlink="http://www.w3.org/1999/xlink" x="0px" y="0px"
	 width="150px" height="150px" viewBox="0 0 150 150" enable-background="new 0 0 150 150" xml:space="preserve">
<circle fill="#FFFFFF" stroke="#FFFFFF" stroke-width="2" stroke-miterlimit="10" cx="75" cy="75.495" r="27.323"/>
<circle fill="none" stroke="#FFFFFF" stroke-width="5" stroke-miterlimit="10" cx="75.131" cy="75.494" r="51"/>
<g>
	<path fill="#20AAC3" stroke="#FFFFFF" stroke-miterlimit="10" d="M15.632,68.356c0,0.659-0.361,1.195-0.807,1.195h-1.32
		c-0.445,0-0.807-0.536-0.807-1.195v-1.957c0-0.659,0.361-1.194,0.807-1.194h1.32c0.445,0,0.807,0.535,0.807,1.194V68.356z"/>
	<ellipse fill="#20AAC3" stroke="#FFFFFF" stroke-miterlimit="10" cx="24.091" cy="58.062" rx="2.866" ry="7.143"/>
	<path fill="#20AAC3" stroke="#FFFFFF" stroke-miterlimit="10" d="M36.674,68.517c0,0.659-0.36,1.195-0.806,1.195h-1.32
		c-0.445,0-0.807-0.536-0.807-1.195V66.56c0-0.659,0.361-1.194,0.807-1.194h1.32c0.445,0,0.806,0.535,0.806,1.194V68.517z"/>
	<g id="XMLID_2_">
		<g>
			<polygon fill="#20AAC3" points="41.867,71.287 41.867,72.917 29.535,70.254 26.821,70.146 25.951,79.979 31.927,82.856 
				31.927,84.975 25.247,83.453 23.943,87.256 22.802,83.453 16.336,84.975 16.336,83.127 22.258,79.979 21.606,70.146 
				18.185,70.365 6.396,73.135 6.396,71.668 21.225,63.41 21.336,58.74 26.821,58.74 27.091,62.707 			"/>
		</g>
		<g>
			<line fill="none" stroke="#FFFFFF" stroke-miterlimit="10" x1="21.336" y1="58.74" x2="21.225" y2="63.41"/>
			<line fill="none" stroke="#FFFFFF" stroke-miterlimit="10" x1="21.225" y1="63.41" x2="6.396" y2="71.668"/>
			<line fill="none" stroke="#FFFFFF" stroke-miterlimit="10" x1="6.396" y1="71.668" x2="6.396" y2="73.135"/>
			<line fill="none" stroke="#FFFFFF" stroke-miterlimit="10" x1="6.396" y1="73.135" x2="18.185" y2="70.365"/>
			<line fill="none" stroke="#FFFFFF" stroke-miterlimit="10" x1="18.185" y1="70.365" x2="21.606" y2="70.146"/>
			<line fill="none" stroke="#FFFFFF" stroke-miterlimit="10" x1="21.606" y1="70.146" x2="22.258" y2="79.979"/>
			<line fill="none" stroke="#FFFFFF" stroke-miterlimit="10" x1="22.258" y1="79.979" x2="16.336" y2="83.127"/>
			<line fill="none" stroke="#FFFFFF" stroke-miterlimit="10" x1="16.336" y1="83.127" x2="16.336" y2="84.975"/>
			<line fill="none" stroke="#FFFFFF" stroke-miterlimit="10" x1="16.336" y1="84.975" x2="22.802" y2="83.453"/>
			<line fill="none" stroke="#FFFFFF" stroke-miterlimit="10" x1="22.802" y1="83.453" x2="23.943" y2="87.256"/>
			<line fill="none" stroke="#FFFFFF" stroke-miterlimit="10" x1="23.943" y1="87.256" x2="25.247" y2="83.453"/>
			<line fill="none" stroke="#FFFFFF" stroke-miterlimit="10" x1="25.247" y1="83.453" x2="31.927" y2="84.975"/>
			<line fill="none" stroke="#FFFFFF" stroke-miterlimit="10" x1="31.927" y1="84.975" x2="31.927" y2="82.856"/>
			<line fill="none" stroke="#FFFFFF" stroke-miterlimit="10" x1="31.927" y1="82.856" x2="25.951" y2="79.979"/>
			<line fill="none" stroke="#FFFFFF" stroke-miterlimit="10" x1="25.951" y1="79.979" x2="26.821" y2="70.146"/>
			<line fill="none" stroke="#FFFFFF" stroke-miterlimit="10" x1="26.821" y1="70.146" x2="29.535" y2="70.254"/>
			<line fill="none" stroke="#FFFFFF" stroke-miterlimit="10" x1="29.535" y1="70.254" x2="41.867" y2="72.917"/>
			<line fill="none" stroke="#FFFFFF" stroke-miterlimit="10" x1="41.867" y1="72.917" x2="41.867" y2="71.287"/>
			<line fill="none" stroke="#FFFFFF" stroke-miterlimit="10" x1="41.867" y1="71.287" x2="27.091" y2="62.707"/>
			<line fill="none" stroke="#FFFFFF" stroke-miterlimit="10" x1="27.091" y1="62.707" x2="26.821" y2="58.74"/>
			<line fill="none" stroke="#FFFFFF" stroke-miterlimit="10" x1="26.821" y1="58.74" x2="21.336" y2="58.74"/>
		</g>
	</g>
</g>
</svg>
