<?xml version="1.0" encoding="utf-8"?>
<!-- Generator: Adobe Illustrator 16.0.2, SVG Export Plug-In . SVG Version: 6.00 Build 0)  -->
<!DOCTYPE svg PUBLIC "-//W3C//DTD SVG 1.1//EN" "http://www.w3.org/Graphics/SVG/1.1/DTD/svg11.dtd">
<svg version="1.1" id="Layer_1" xmlns="http://www.w3.org/2000/svg" xmlns:xlink="http://www.w3.org/1999/xlink" x="0px" y="0px"
	 width="1031.382px" height="294.331px" viewBox="0 -49 1031.382 294.331" enable-background="new 0 -49 1031.382 294.331"
	 xml:space="preserve">
<linearGradient id="SVGID_1_" gradientUnits="userSpaceOnUse" x1="523.2607" y1="1430.3276" x2="948.0889" y2="1430.3276" gradientTransform="matrix(0.5859 0 0 0.5859 83.7303 -756.121)">
	<stop  offset="0" style="stop-color:#00FF99"/>
	<stop  offset="1" style="stop-color:#33CCFF"/>
</linearGradient>
<circle display="none" fill="none" stroke="url(#SVGID_1_)" stroke-width="16" stroke-miterlimit="10" cx="514.762" cy="81.908" r="119.766"/>
<linearGradient id="SVGID_2_" gradientUnits="userSpaceOnUse" x1="627.6689" y1="1430.3276" x2="843.6807" y2="1430.3276" gradientTransform="matrix(0.5859 0 0 0.5859 83.7303 -756.121)">
	<stop  offset="0" style="stop-color:#00FF99"/>
	<stop  offset="1" style="stop-color:#33CCFF"/>
</linearGradient>
<circle display="none" fill="url(#SVGID_2_)" cx="514.762" cy="81.908" r="63.281"/>
<linearGradient id="SVGID_3_" gradientUnits="userSpaceOnUse" x1="838.1816" y1="1284.3188" x2="918.7852" y2="1284.3188" gradientTransform="matrix(0.5859 0 0 0.5859 83.7303 -756.121)">
	<stop  offset="0" style="stop-color:#00FF99"/>
	<stop  offset="1" style="stop-color:#33CCFF"/>
</linearGradient>
<circle display="none" fill="url(#SVGID_3_)" cx="598.434" cy="-3.639" r="23.613"/>
<linearGradient id="SVGID_4_" gradientUnits="userSpaceOnUse" x1="509.5605" y1="1469.8296" x2="559.2707" y2="1469.8296" gradientTransform="matrix(0.5859 0 0 0.5859 83.7303 -756.121)">
	<stop  offset="0" style="stop-color:#00FF99"/>
	<stop  offset="1" style="stop-color:#33CCFF"/>
</linearGradient>
<circle display="none" fill="url(#SVGID_4_)" cx="396.872" cy="105.052" r="14.59"/>
<g>
	<line fill="none" x1="345.382" y1="63.908" x2="4.95" y2="4.908"/>
	<g>
		
			<linearGradient id="SVGID_5_" gradientUnits="userSpaceOnUse" x1="4.8647" y1="211.9233" x2="345.4674" y2="211.9233" gradientTransform="matrix(1 0 0 -1 0 246.3311)">
			<stop  offset="0" style="stop-color:#94FF98"/>
			<stop  offset="0.5" style="stop-color:#1DFFB5"/>
		</linearGradient>
		<path fill="url(#SVGID_5_)" d="M346.711,59.086c-37.566-6.511-75.133-13.021-112.699-19.532
			C173.263,29.026,112.514,18.498,51.764,7.969C36.603,5.342,21.441,2.714,6.279,0.086c-6.305-1.093-9.003,8.543-2.658,9.643
			C41.188,16.24,78.754,22.75,116.32,29.261c60.75,10.529,121.499,21.057,182.248,31.585c15.163,2.627,30.323,5.255,45.485,7.883
			C350.358,69.822,353.057,60.186,346.711,59.086L346.711,59.086z"/>
	</g>
</g>
<g>
	<g>
		
			<linearGradient id="SVGID_6_" gradientUnits="userSpaceOnUse" x1="42.7212" y1="155.1167" x2="351.0386" y2="155.1167" gradientTransform="matrix(1 0 0 -1 0 246.3311)">
			<stop  offset="0" style="stop-color:#94FF98"/>
			<stop  offset="0.5" style="stop-color:#1DFFB5"/>
		</linearGradient>
		<path fill="url(#SVGID_6_)" d="M352.284,112.84c-40.106-6.885-80.212-13.769-120.318-20.653
			c-56.595-9.714-113.189-19.429-169.784-29.144c-6.016-1.033-12.031-2.065-18.047-3.098c-6.306-1.083-9.005,8.553-2.658,9.643
			c40.106,6.884,80.212,13.769,120.318,20.653c56.595,9.714,113.189,19.429,169.784,29.144c6.016,1.032,12.031,2.065,18.047,3.098
			C355.931,123.565,358.63,113.929,352.284,112.84L352.284,112.84z"/>
	</g>
</g>
<g>
	<g>
		
			<linearGradient id="SVGID_7_" gradientUnits="userSpaceOnUse" x1="78.6748" y1="102.0308" x2="376.5054" y2="102.0308" gradientTransform="matrix(1 0 0 -1 0 246.3311)">
			<stop  offset="0" style="stop-color:#94FF98"/>
			<stop  offset="0.5" style="stop-color:#1DFFB5"/>
		</linearGradient>
		<path fill="url(#SVGID_7_)" d="M377.747,165.873c-40.8-7.236-81.6-14.472-122.4-21.707
			c-54.541-9.672-109.083-19.345-163.624-29.017c-3.877-0.688-7.754-1.375-11.631-2.063c-6.304-1.118-9,8.518-2.658,9.643
			c40.8,7.235,81.6,14.472,122.4,21.706c54.541,9.672,109.083,19.346,163.624,29.018c3.877,0.688,7.754,1.375,11.631,2.063
			C381.393,176.632,384.089,166.998,377.747,165.873L377.747,165.873z"/>
	</g>
</g>
<g>
	<g>
		
			<linearGradient id="SVGID_8_" gradientUnits="userSpaceOnUse" x1="140.6875" y1="33.6553" x2="511.8364" y2="33.6553" gradientTransform="matrix(1 0 0 -1 0 246.3311)">
			<stop  offset="0" style="stop-color:#94FF98"/>
			<stop  offset="0.5" style="stop-color:#1DFFB5"/>
		</linearGradient>
		<path fill="url(#SVGID_8_)" d="M513.091,235.623c-35.729-5.349-71.461-10.697-107.191-16.045
			c-62.841-9.408-125.682-18.813-188.521-28.222c-25.096-3.757-50.191-7.513-75.287-11.271c-6.306-0.943-9.018,8.69-2.658,9.644
			c35.73,5.349,71.461,10.696,107.192,16.046c62.84,9.407,125.681,18.813,188.521,28.221c25.096,3.756,50.19,7.514,75.286,11.271
			C516.739,246.208,519.452,236.576,513.091,235.623L513.091,235.623z"/>
	</g>
</g>
<circle display="none" fill="none" stroke="#000000" stroke-miterlimit="10" cx="515.688" cy="81.87" r="144.073"/>
<g>
	<g>
		
			<linearGradient id="SVGID_9_" gradientUnits="userSpaceOnUse" x1="685.5684" y1="209.9233" x2="1026.5068" y2="209.9233" gradientTransform="matrix(1 0 0 -1 0 246.3311)">
			<stop  offset="0.5" style="stop-color:#1DFFB5"/>
			<stop  offset="1" style="stop-color:#94FF98"/>
		</linearGradient>
		<path fill="url(#SVGID_9_)" d="M686.979,68.729c37.725-6.088,75.449-12.177,113.175-18.266
			c60.869-9.824,121.738-19.648,182.607-29.472c14.999-2.421,29.997-4.841,44.995-7.262c6.354-1.025,3.648-10.661-2.658-9.643
			c-37.725,6.088-75.449,12.177-113.175,18.266C851.054,32.176,790.184,42,729.315,51.824c-14.999,2.421-29.997,4.841-44.995,7.262
			C677.966,60.112,680.671,69.747,686.979,68.729L686.979,68.729z"/>
	</g>
</g>
<g>
	<g>
		
			<linearGradient id="SVGID_10_" gradientUnits="userSpaceOnUse" x1="680.1338" y1="155.4233" x2="991.8478" y2="155.4233" gradientTransform="matrix(1 0 0 -1 0 246.3311)">
			<stop  offset="0.5" style="stop-color:#1DFFB5"/>
			<stop  offset="1" style="stop-color:#94FF98"/>
		</linearGradient>
		<path fill="url(#SVGID_10_)" d="M681.546,122.729c39.729-6.886,79.457-13.772,119.187-20.658
			c57.171-9.909,114.341-19.819,171.511-29.728c6.95-1.205,13.898-2.409,20.849-3.614c6.346-1.1,3.647-10.735-2.658-9.643
			c-39.729,6.886-79.457,13.772-119.186,20.658c-57.171,9.909-114.341,19.818-171.511,29.729c-6.95,1.204-13.899,2.408-20.85,3.613
			C672.542,114.186,675.241,123.822,681.546,122.729L681.546,122.729z"/>
	</g>
</g>
<g>
	<g>
		
			<linearGradient id="SVGID_11_" gradientUnits="userSpaceOnUse" x1="653.875" y1="102.0474" x2="956.8496" y2="102.0474" gradientTransform="matrix(1 0 0 -1 0 246.3311)">
			<stop  offset="0.5" style="stop-color:#1DFFB5"/>
			<stop  offset="1" style="stop-color:#94FF98"/>
		</linearGradient>
		<path fill="url(#SVGID_11_)" d="M955.433,112.84c-40.368,7.099-80.737,14.197-121.105,21.296
			c-55.601,9.777-111.199,19.554-166.798,29.33c-4.967,0.873-9.933,1.746-14.896,2.619c-6.344,1.115-3.646,10.752,2.658,9.644
			c40.369-7.099,80.738-14.196,121.105-21.296c55.601-9.777,111.199-19.555,166.799-29.331c4.966-0.873,9.932-1.746,14.896-2.619
			C964.435,121.368,961.738,111.732,955.433,112.84L955.433,112.84z"/>
	</g>
</g>
<g>
	<g>
		
			<linearGradient id="SVGID_12_" gradientUnits="userSpaceOnUse" x1="518.6895" y1="32.6558" x2="894.8368" y2="32.6558" gradientTransform="matrix(1 0 0 -1 0 246.3311)">
			<stop  offset="0.5" style="stop-color:#1DFFB5"/>
			<stop  offset="1" style="stop-color:#94FF98"/>
		</linearGradient>
		<path fill="url(#SVGID_12_)" d="M520.091,246.265c35.357-5.223,70.716-10.444,106.073-15.667
			c62.986-9.304,125.973-18.606,188.96-27.91c26.989-3.985,53.978-7.974,80.967-11.959c6.361-0.938,3.647-10.574-2.658-9.644
			c-35.356,5.224-70.716,10.444-106.072,15.668c-62.986,9.304-125.974,18.605-188.96,27.91
			c-26.989,3.985-53.979,7.973-80.968,11.959C511.072,237.562,513.786,247.197,520.091,246.265L520.091,246.265z"/>
	</g>
</g>
<linearGradient id="SVGID_13_" gradientUnits="userSpaceOnUse" x1="551.1104" y1="1262.063" x2="975.9365" y2="1262.063" gradientTransform="matrix(0.5859 0 0 0.5859 70.5276 -656.6766)">
	<stop  offset="0" style="stop-color:#00FF99"/>
	<stop  offset="1" style="stop-color:#33CCFF"/>
</linearGradient>
<circle fill="none" stroke="url(#SVGID_13_)" stroke-width="16" stroke-miterlimit="10" cx="517.876" cy="82.766" r="119.766"/>
<linearGradient id="SVGID_14_" gradientUnits="userSpaceOnUse" x1="655.5166" y1="1262.064" x2="871.5303" y2="1262.064" gradientTransform="matrix(0.5859 0 0 0.5859 70.5276 -656.6766)">
	<stop  offset="0" style="stop-color:#00FF99"/>
	<stop  offset="1" style="stop-color:#33CCFF"/>
</linearGradient>
<circle fill="url(#SVGID_14_)" cx="517.876" cy="82.766" r="63.281"/>
<linearGradient id="SVGID_15_" gradientUnits="userSpaceOnUse" x1="866.0303" y1="1116.0542" x2="946.6338" y2="1116.0542" gradientTransform="matrix(0.5859 0 0 0.5859 70.5276 -656.6766)">
	<stop  offset="0" style="stop-color:#00FF99"/>
	<stop  offset="1" style="stop-color:#33CCFF"/>
</linearGradient>
<circle fill="url(#SVGID_15_)" cx="601.548" cy="-2.781" r="23.613"/>
<linearGradient id="SVGID_16_" gradientUnits="userSpaceOnUse" x1="537.4072" y1="1301.5659" x2="587.1172" y2="1301.5659" gradientTransform="matrix(0.5859 0 0 0.5859 70.5276 -656.6766)">
	<stop  offset="0" style="stop-color:#00FF99"/>
	<stop  offset="1" style="stop-color:#33CCFF"/>
</linearGradient>
<circle fill="url(#SVGID_16_)" cx="399.985" cy="105.911" r="14.59"/>
</svg>
