<?xml version="1.0" encoding="utf-8"?>
<!-- Generator: Adobe Illustrator 16.0.3, SVG Export Plug-In . SVG Version: 6.00 Build 0)  -->
<!DOCTYPE svg PUBLIC "-//W3C//DTD SVG 1.1//EN" "http://www.w3.org/Graphics/SVG/1.1/DTD/svg11.dtd">
<svg version="1.1" id="Capa_1" xmlns="http://www.w3.org/2000/svg" xmlns:xlink="http://www.w3.org/1999/xlink" x="0px" y="0px"
	 width="170px" height="150px" viewBox="0 0 170 150" enable-background="new 0 0 170 150" xml:space="preserve">
<g>
	<g>
		<line fill="#FFFFFF" stroke-miterlimit="10" x1="52.762" y1="70.961" x2="9.461" y2="51.631"/>
		<g>
			<path fill="#FFFFFF" stroke-miterlimit="10" d="M52.931,69.382c-4.778-2.133-9.557-4.266-14.334-6.4
				c-7.727-3.448-15.454-6.898-23.181-10.347c-1.929-0.861-3.857-1.724-5.786-2.584c-0.802-0.357-1.145,2.799-0.338,3.16
				c4.778,2.133,9.557,4.266,14.334,6.399c7.727,3.45,15.454,6.898,23.181,10.347c1.929,0.862,3.857,1.724,5.786,2.584
				C53.395,72.899,53.738,69.741,52.931,69.382L52.931,69.382z"/>
		</g>
	</g>
	<g>
		<g>
			<path fill="#FFFFFF" stroke-miterlimit="10" d="M56.756,75.375c-5.168-2.096-10.337-4.19-15.506-6.287
				c-7.293-2.959-14.588-5.917-21.882-8.875c-0.775-0.315-1.55-0.629-2.325-0.943c-0.813-0.33-1.058,2.836-0.24,3.168
				c5.168,2.096,10.338,4.193,15.506,6.289c7.293,2.957,14.587,5.916,21.882,8.875c0.775,0.313,1.55,0.628,2.326,0.942
				C57.33,78.875,57.575,75.709,56.756,75.375L56.756,75.375z"/>
		</g>
	</g>
	<g>
		<g>
			<path fill="#FFFFFF" stroke-miterlimit="10" d="M60.189,82.16c-5.328-2.042-10.655-4.085-15.982-6.123
				c-7.122-2.73-14.243-5.46-21.365-8.189c-0.507-0.194-1.012-0.388-1.519-0.582c-0.823-0.314-0.968,2.856-0.14,3.175
				c5.328,2.041,10.654,4.082,15.982,6.125c7.123,2.729,14.244,5.461,21.365,8.19c0.507,0.193,1.012,0.384,1.52,0.583
				C60.872,85.652,61.017,82.478,60.189,82.16L60.189,82.16z"/>
		</g>
	</g>
	<g>
		<g>
			<path fill="#FFFFFF" stroke-miterlimit="10" d="M84.746,96.797c-4.544-1.752-9.089-3.503-13.634-5.258
				c-7.994-3.082-15.986-6.165-23.979-9.246c-3.192-1.23-6.384-2.461-9.576-3.692c-0.802-0.31-1.147,2.848-0.338,3.159
				c4.544,1.756,9.089,3.506,13.634,5.257c7.993,3.084,15.986,6.166,23.979,9.249c3.192,1.231,6.384,2.458,9.576,3.69
				C85.209,100.267,85.555,97.11,84.746,96.797L84.746,96.797z"/>
		</g>
	</g>
	<g>
		<g>
			<path fill="#FFFFFF" stroke-miterlimit="10" d="M116.616,70.669c4.874-1.8,9.75-3.599,14.624-5.401
				c7.864-2.906,15.73-5.811,23.596-8.715c1.938-0.717,3.877-1.432,5.815-2.147c0.82-0.304,0.603-3.472-0.212-3.171
				c-4.874,1.801-9.749,3.601-14.624,5.402c-7.865,2.906-15.73,5.811-23.596,8.715c-1.938,0.715-3.877,1.432-5.814,2.147
				C115.584,67.802,115.802,70.97,116.616,70.669L116.616,70.669z"/>
		</g>
	</g>
	<g>
		<g>
			<path fill="#FFFFFF" stroke-miterlimit="10" d="M112.979,78.344c5.149-2.027,10.299-4.056,15.448-6.083
				c7.409-2.917,14.818-5.836,22.229-8.755c0.9-0.353,1.801-0.708,2.702-1.063c0.822-0.323,0.621-3.492-0.196-3.171
				c-5.149,2.027-10.299,4.055-15.447,6.083c-7.41,2.918-14.819,5.836-22.229,8.755c-0.901,0.354-1.801,0.709-2.701,1.064
				C111.96,75.496,112.162,78.665,112.979,78.344L112.979,78.344z"/>
		</g>
	</g>
	<g>
		<g>
			<path fill="#FFFFFF" stroke-miterlimit="10" d="M148.8,67.054c-5.256,2.042-10.511,4.083-15.764,6.125
				c-7.237,2.81-14.474,5.619-21.711,8.431c-0.646,0.25-1.292,0.504-1.938,0.752c-0.825,0.32-0.657,3.495,0.164,3.175
				c5.255-2.042,10.508-4.081,15.764-6.124c7.236-2.812,14.474-5.619,21.71-8.43c0.647-0.253,1.293-0.502,1.94-0.753
				C149.789,69.908,149.62,66.737,148.8,67.054L148.8,67.054z"/>
		</g>
	</g>
	<g>
		<g>
			<path fill="#FFFFFF" stroke-miterlimit="10" d="M86.018,99.954c4.497-1.71,8.994-3.419,13.492-5.129
				c8.011-3.049,16.023-6.1,24.034-9.146c3.433-1.311,6.866-2.611,10.298-3.92c0.81-0.308,0.464-3.463-0.337-3.159
				c-4.498,1.714-8.995,3.424-13.492,5.134c-8.012,3.047-16.022,6.096-24.035,9.146c-3.433,1.304-6.864,2.61-10.298,3.916
				C84.871,97.104,85.215,100.262,86.018,99.954L86.018,99.954z"/>
		</g>
	</g>
</g>
</svg>
